<svg xmlns="http://www.w3.org/2000/svg" width="334.521" height="101.12" viewBox="0 0 334.521 101.12">
  <g id="Mark" transform="translate(0 -285.851)">
    <path id="Path_63834" data-name="Path 63834" d="M122.69,397.58A12.55,12.55,0,0,0,140,415.33a13,13,0,0,0,2.94-3q.28-.41.54-.84h22.24V433H149.84v-7.35a18.64,18.64,0,0,1-7.63,6.45A23.61,23.61,0,0,1,132,434.37a23.85,23.85,0,0,1-10.31-2.24,26,26,0,0,1-8.24-6.07,28.171,28.171,0,0,1-5.51-9.13,31.87,31.87,0,0,1-2-11.41,31.35,31.35,0,0,1,2-11.35,29,29,0,0,1,5.51-9.14,25.67,25.67,0,0,1,8.24-6.12A23.85,23.85,0,0,1,132,376.67a24.74,24.74,0,0,1,10.19,2.12,18,18,0,0,1,7.63,6.35V378h15.92v22h-21.6a13.85,13.85,0,0,0-1.18-2.09,13,13,0,0,0-2.84-2.9,12.44,12.44,0,0,0-7.44-2.44,12.66,12.66,0,0,0-7.44,2.44,12.891,12.891,0,0,0-2.55,2.57Z" transform="translate(-52.91 -69.22)" fill="#006bb6"/>
    <rect id="Rectangle_4524" data-name="Rectangle 4524" width="2.57" height="0.06" transform="translate(133.68 342.23)" fill="#006bb6"/>
    <rect id="Rectangle_4525" data-name="Rectangle 4525" width="0.01" height="0.01" transform="translate(173.29 346.37)" fill="#006bb6"/>
    <path id="Path_63835" data-name="Path 63835" d="M106.59,355.07,89.32,383.58,72.06,355.07H52.91l27.84,44.1V433H97.57V399.17l27.84-44.1Z" transform="translate(-52.91 -69.22)" fill="#f15e22"/>
    <rect id="Rectangle_4526" data-name="Rectangle 4526" width="18.86" height="0.06" transform="translate(114.82 342.23)" fill="#006bb6"/>
    <path id="Path_63836" data-name="Path 63836" d="M226.21,415.6Z" transform="translate(-52.91 -69.22)" fill="#006bb6"/>
    <path id="Path_63837" data-name="Path 63837" d="M226.2,415.59Z" transform="translate(-52.91 -69.22)" fill="#006bb6"/>
    <path id="Path_63838" data-name="Path 63838" d="M226.21,415.6Z" transform="translate(-52.91 -69.22)" fill="#006bb6"/>
    <path id="Path_63839" data-name="Path 63839" d="M341.93,394.1a28,28,0,0,0-5.74-9.3,25.77,25.77,0,0,0-8.85-6.07,30.82,30.82,0,0,0-22.72,0,27.48,27.48,0,0,0-9,6.07,28.351,28.351,0,0,0-6,9.19,30.23,30.23,0,0,0-2.17,11.53,30.909,30.909,0,0,0,2.17,11.69,27.52,27.52,0,0,0,6,9.19,26.69,26.69,0,0,0,9.19,6,31.771,31.771,0,0,0,11.8,2.12,29.68,29.68,0,0,0,15.54-3.9,26,26,0,0,0,10-10.69l-13.7-5.46a15.44,15.44,0,0,1-4.57,4.9,12.89,12.89,0,0,1-7.24,1.78,14.1,14.1,0,0,1-4.84-.83,14.38,14.38,0,0,1-4.13-2.34,12.289,12.289,0,0,1-2.94-3.51,11.06,11.06,0,0,1-1.34-4.45h40.43a11.8,11.8,0,0,0,.16-1.56c0-.68.06-1.49.06-2.45a33.13,33.13,0,0,0-2.11-11.91Zm-38.48,5.29a9.49,9.49,0,0,1,1.28-3.78,13,13,0,0,1,2.73-3.24,13.2,13.2,0,0,1,3.79-2.28,13.43,13.43,0,0,1,12.91,2,11,11,0,0,1,3.9,7.29Z" transform="translate(-52.91 -69.22)" fill="#f15e22"/>
    <path id="Path_63840" data-name="Path 63840" d="M383.36,405.57q-4.08-4.17-11.86-6.18l-6.91-1.78c-3-.81-4.56-2.23-4.56-4.23a3.25,3.25,0,0,1,1.44-2.73,6.12,6.12,0,0,1,3.68-1.06,8.26,8.26,0,0,1,5,1.84,11.15,11.15,0,0,1,3.67,4.95l13.26-7a19.34,19.34,0,0,0-3.57-5.23,22.649,22.649,0,0,0-5.12-4,27,27,0,0,0-6.24-2.62,25.21,25.21,0,0,0-6.9-.95,26.89,26.89,0,0,0-8.64,1.34,20.46,20.46,0,0,0-6.73,3.68,16.23,16.23,0,0,0-4.34,5.62,16.51,16.51,0,0,0-1.56,7.18q0,13.26,15.7,16.93l6.46,1.56q5,1.23,5,4.12a3.57,3.57,0,0,1-1.62,3.12,7.18,7.18,0,0,1-4.17,1.11,10,10,0,0,1-5.9-2,13.33,13.33,0,0,1-4.35-5.46L342,421a21,21,0,0,0,8.91,9.91,28,28,0,0,0,14.37,3.57,27.2,27.2,0,0,0,8.86-1.4,21.76,21.76,0,0,0,7-3.89,18.16,18.16,0,0,0,4.62-6,17,17,0,0,0,1.67-7.57,13.94,13.94,0,0,0-4.07-10.05Z" transform="translate(-52.91 -69.22)" fill="#f15e22"/>
    <path id="Path_63841" data-name="Path 63841" d="M286.23,405.52a31.65,31.65,0,0,1-2,11.36,29.14,29.14,0,0,1-5.52,9.13,25.841,25.841,0,0,1-8.24,6.13,24,24,0,0,1-10.3,2.23A25.209,25.209,0,0,1,250,432.3a17.24,17.24,0,0,1-7.62-6.4v30.29H226.2V415.6h0c-.14.43-.29.84-.45,1.26a28.86,28.86,0,0,1-5.51,9.13,25.46,25.46,0,0,1-8.25,6.12,23.76,23.76,0,0,1-10.29,2.24,25.209,25.209,0,0,1-10.2-2.07,17.24,17.24,0,0,1-7.62-6.4v30.29H167.73V411.52h21.43v7h24.07V411.7h38.71v8l12.14-7,11.68-6.75.46-.26-12.14-7-12.14-7V400H213.23v-5.74H189.16V400H167.73V378h16.15v7.35a18.75,18.75,0,0,1,7.63-6.46,24.63,24.63,0,0,1,20.48,0,26.2,26.2,0,0,1,8.25,6.07,28,28,0,0,1,5.51,9.13c.16.42.31.85.45,1.27V378h16.15v7.35a18.68,18.68,0,0,1,7.62-6.45,24.57,24.57,0,0,1,20.5,0,25.93,25.93,0,0,1,8.24,6.06,28.359,28.359,0,0,1,5.52,9.13,32.14,32.14,0,0,1,2,11.43Z" transform="translate(-52.91 -69.22)" fill="#006bb6"/>
    <rect id="Rectangle_4527" data-name="Rectangle 4527" width="2.99" height="0.01" transform="translate(133.26 330.8)" fill="#006bb6"/>
    <rect id="Rectangle_4528" data-name="Rectangle 4528" width="4.04" height="0.04" transform="translate(160.32 330.8)" fill="#006bb6"/>
    <rect id="Rectangle_4529" data-name="Rectangle 4529" width="2.99" height="0.06" transform="translate(133.26 342.23)" fill="#006bb6"/>
    <rect id="Rectangle_4530" data-name="Rectangle 4530" width="21.42" height="0.06" transform="translate(114.82 342.23)" fill="#fff"/>
    <rect id="Rectangle_4531" data-name="Rectangle 4531" width="38.71" height="0.03" transform="translate(160.32 330.81)" fill="#fff"/>
    <path id="Path_63842" data-name="Path 63842" d="M251.94,400Z" transform="translate(-52.91 -69.22)" fill="#006bb6"/>
  </g>
</svg>
